{"glyphs":{":":{"x_min":0,"x_max":265,"ha":265,"o":"m 60 0 l 60 145 l 205 145 l 205 0 z m 60 392 l 60 536 l 205 536 l 205 392 z"},"$":{"x_min":0,"x_max":624,"ha":624,"o":"m 289 -78 l 289 0 q 153 12 84 36 l 84 175 l 151 175 l 151 166 q 153 146 153 136 q 153 61 289 50 l 289 316 l 263 335 q 167 405 136 446 q 104 487 104 545 q 104 622 159 671 q 213 720 304 723 l 304 801 l 350 801 l 350 723 q 460 712 518 690 l 518 554 l 451 554 l 451 563 q 447 631 428 652 q 410 672 350 679 l 350 428 l 404 392 q 483 340 511 300 q 540 259 540 200 q 540 115 484 61 q 428 6 334 0 l 334 -78 z m 334 53 q 417 77 417 168 q 417 206 402 228 q 387 250 334 289 z m 301 457 l 301 676 q 227 644 227 568 q 227 542 245 514 q 264 486 301 457 z"},"?":{"x_min":0,"x_max":505,"ha":505,"o":"m 138 0 l 138 121 l 283 121 l 283 0 z m 138 205 l 138 213 q 138 293 213 358 l 244 385 q 321 452 321 546 q 321 614 287 655 q 253 696 198 696 q 149 696 118 667 q 104 655 100 584 l 100 575 l 33 575 l 33 710 q 123 741 230 741 q 339 741 406 697 q 473 652 473 579 q 473 508 396 452 q 363 428 352 418 l 330 399 q 301 375 292 339 q 283 302 283 214 l 283 205 z"},"<":{"x_min":0,"x_max":624,"ha":624,"o":"m 577 24 l 47 289 l 577 554 l 577 470 l 208 289 l 577 108 z"},"'":{"x_min":0,"x_max":253,"ha":253,"o":"m 103 470 l 48 771 l 205 771 l 151 470 z"},"=":{"x_min":0,"x_max":624,"ha":624,"o":"m 47 168 l 47 241 l 577 241 l 577 168 z m 47 337 l 47 410 l 577 410 l 577 337 z"},"a":{"x_min":0,"x_max":556,"ha":556,"o":"m 347 62 q 309 25 268 6 q 228 -12 186 -12 q 115 -12 68 32 q 21 76 21 144 q 21 222 81 269 q 116 297 165 308 q 214 319 303 319 l 327 319 l 327 384 q 327 453 310 478 q 292 503 246 503 q 188 503 160 472 q 150 462 147 407 l 146 397 l 68 397 l 68 506 q 161 548 262 548 q 363 548 417 506 q 472 464 472 386 l 472 150 q 472 88 481 65 q 490 42 515 42 q 522 42 532 45 l 538 0 q 500 -12 464 -12 q 425 -12 396 6 q 366 25 347 62 z m 327 98 l 327 275 l 308 275 q 236 275 199 246 q 163 217 163 159 q 163 116 186 91 q 209 65 249 65 q 271 65 290 73 q 310 82 327 98 z"},"L":{"x_min":0,"x_max":584,"ha":584,"o":"m 575 0 l 21 0 l 21 45 l 30 46 q 80 49 89 63 q 99 76 99 142 l 99 582 q 99 647 90 660 q 80 673 30 677 l 21 678 l 21 723 l 328 723 l 328 678 l 319 677 q 269 673 260 660 q 250 647 250 582 l 250 142 q 250 61 269 55 q 283 51 347 51 l 407 51 q 444 51 477 55 q 494 57 498 67 q 502 78 502 163 l 503 172 l 575 172 z"},"3":{"x_min":0,"x_max":624,"ha":624,"o":"m 80 8 l 80 145 l 146 145 l 146 136 q 148 107 148 104 q 148 68 178 48 q 208 27 261 27 q 324 27 363 71 q 403 115 403 186 q 403 271 349 316 q 295 361 195 361 l 146 361 l 146 406 l 188 406 q 285 406 334 443 q 382 480 382 554 q 382 617 348 656 q 314 696 259 696 q 208 696 175 670 q 160 658 157 634 l 154 584 l 154 575 l 84 575 l 84 709 q 181 741 285 741 q 400 741 464 697 q 527 652 527 571 q 527 506 485 459 q 443 412 365 389 q 456 370 504 319 q 552 269 552 192 q 552 95 478 38 q 404 -18 276 -18 q 218 -18 169 -11 q 120 -5 80 8 z"},";":{"x_min":0,"x_max":265,"ha":265,"o":"m 60 -145 l 60 -100 q 115 -91 115 -18 l 115 0 l 60 0 l 60 145 l 205 145 l 205 38 q 205 -125 60 -145 z m 60 392 l 60 536 l 205 536 l 205 392 z"},"J":{"x_min":0,"x_max":452,"ha":452,"o":"m -6 -129 l -6 0 l 66 0 l 67 -9 q 68 -24 69 -37 q 71 -97 122 -97 q 168 -97 185 -63 q 202 -29 202 62 l 202 582 q 202 647 193 660 q 183 673 133 677 l 124 678 l 124 723 l 431 723 l 431 678 l 422 677 q 372 673 363 660 q 353 647 353 582 l 353 113 q 353 -26 298 -85 q 243 -145 114 -145 q 62 -145 -6 -129 z"},"V":{"x_min":0,"x_max":753,"ha":753,"o":"m 356 -9 l 101 583 q 66 662 60 668 q 54 674 9 677 l 0 678 l 0 723 l 313 723 l 313 678 l 304 677 q 285 677 266 676 q 248 676 248 656 q 248 642 272 583 l 434 202 l 590 582 q 595 595 605 623 q 615 652 615 659 q 615 677 585 677 l 557 677 l 548 678 l 548 723 l 753 723 l 753 678 l 744 677 q 730 676 723 676 q 699 675 690 663 q 681 651 651 583 l 405 -9 z"},"\"":{"x_min":0,"x_max":461,"ha":461,"o":"m 98 482 l 50 771 l 194 771 l 146 482 z m 315 482 l 267 771 l 411 771 l 363 482 z"},"7":{"x_min":0,"x_max":624,"ha":624,"o":"m 132 0 q 145 104 189 178 q 233 251 432 504 l 509 603 l 100 603 l 100 723 l 594 723 l 594 631 q 302 275 289 0 z"},"S":{"x_min":0,"x_max":556,"ha":556,"o":"m 49 9 l 49 160 l 121 160 l 122 148 q 125 84 146 66 q 191 30 252 30 q 310 30 345 66 q 381 102 381 159 q 381 205 360 232 q 339 260 279 293 l 231 319 q 50 419 50 537 q 50 629 115 685 q 181 741 289 741 q 374 741 483 709 l 483 563 l 411 563 l 410 572 q 406 641 390 657 q 354 693 299 693 q 253 693 221 659 q 188 626 188 577 q 188 540 210 514 q 231 489 291 455 l 339 426 q 446 365 486 317 q 525 269 525 199 q 525 100 451 41 q 377 -18 252 -18 q 164 -18 49 9 z"},"}":{"x_min":0,"x_max":366,"ha":366,"o":"m 308 291 l 290 291 q 220 291 220 221 q 220 209 233 152 l 245 100 q 259 40 259 8 q 259 -57 210 -101 q 162 -145 89 -145 l 52 -145 l 52 -100 q 124 -89 124 -21 q 124 -6 116 33 l 110 67 q 101 119 101 155 q 101 269 209 313 q 102 359 102 471 q 102 513 111 564 l 118 599 q 125 642 125 654 q 125 714 52 726 l 52 771 l 91 771 q 164 771 212 729 q 261 688 261 625 q 261 590 247 530 l 235 479 q 222 424 222 402 q 222 336 290 336 l 308 336 z"},"Z":{"x_min":0,"x_max":639,"ha":639,"o":"m 44 0 l 44 54 l 414 668 l 212 668 q 168 668 156 661 q 145 654 145 627 q 145 590 144 580 l 144 572 l 71 572 l 71 723 l 579 723 l 579 668 l 212 54 l 413 54 q 488 54 496 61 q 503 67 507 137 l 508 147 l 580 147 l 580 0 z"},"x":{"x_min":0,"x_max":608,"ha":608,"o":"m 237 257 l 136 397 q 88 460 70 474 q 53 488 18 490 l 9 491 l 9 536 l 310 536 l 310 491 l 301 491 q 249 491 248 477 q 248 462 292 398 l 339 333 l 394 399 q 447 462 447 478 q 447 491 404 491 l 395 491 l 395 536 l 600 536 l 600 491 l 590 490 q 547 488 535 480 q 523 471 461 399 l 370 289 l 477 141 q 525 76 544 62 q 562 48 600 46 l 608 45 l 608 0 l 310 0 l 310 45 l 319 45 q 371 45 372 59 q 373 70 322 141 l 271 211 l 209 142 q 154 79 153 60 q 152 45 193 45 l 202 45 l 202 0 l 0 0 l 0 45 l 6 46 q 49 49 64 60 q 79 70 141 141 z"},")":{"x_min":0,"x_max":327,"ha":327,"o":"m 36 732 l 36 777 q 154 713 226 586 q 297 459 297 312 q 297 168 225 40 q 153 -87 36 -150 l 36 -105 q 98 -49 125 49 q 152 147 152 313 q 152 480 125 578 q 98 676 36 732 z"},"&":{"x_min":0,"x_max":765,"ha":765,"o":"m 521 0 l 484 41 q 400 -18 299 -18 q 185 -18 106 49 q 28 116 28 214 q 28 365 214 434 q 158 525 158 583 q 158 652 212 696 q 267 741 350 741 q 438 741 491 700 q 544 659 544 591 q 544 474 377 418 q 473 262 553 166 q 587 225 587 298 q 587 337 578 346 q 569 355 526 358 l 517 358 l 517 404 l 752 404 l 752 358 l 743 358 q 697 355 690 350 q 684 344 679 302 q 670 225 583 130 q 634 67 648 59 q 663 50 722 46 l 731 45 l 731 0 z m 457 77 q 348 201 238 395 q 166 336 166 245 q 166 159 219 103 q 272 47 354 47 q 406 47 457 77 z m 355 456 q 425 519 425 598 q 425 647 409 671 q 394 696 362 696 q 329 696 312 675 q 295 654 295 612 q 295 551 355 456 z"},"_":{"x_min":0,"x_max":500,"ha":500,"o":"m 45 -78 l 45 0 l 455 0 l 455 -78 z"},"v":{"x_min":0,"x_max":657,"ha":657,"o":"m 303 -6 l 110 393 q 76 459 61 473 q 46 488 9 490 l 0 491 l 0 536 l 301 536 l 301 491 l 292 490 q 240 487 239 471 q 238 459 270 393 l 376 171 l 486 393 q 519 458 519 474 q 519 487 467 490 l 458 491 l 458 536 l 657 536 l 657 491 l 647 490 q 609 488 596 475 q 583 463 547 394 l 347 -6 z"},"O":{"x_min":0,"x_max":810,"ha":810,"o":"m 405 -18 q 235 -18 137 84 q 39 186 39 361 q 39 538 137 639 q 235 741 405 741 q 575 741 673 639 q 771 538 771 361 q 771 186 673 84 q 575 -18 405 -18 z m 405 30 q 509 30 560 114 q 612 197 612 363 q 612 528 560 611 q 509 693 405 693 q 302 693 250 611 q 199 528 199 363 q 199 197 250 114 q 302 30 405 30 z"},"(":{"x_min":0,"x_max":327,"ha":327,"o":"m 291 -105 l 291 -150 q 172 -86 101 40 q 30 167 30 314 q 30 458 102 586 q 174 714 291 777 l 291 732 q 229 676 202 578 q 175 480 175 313 q 175 147 202 49 q 229 -49 291 -105 z"},"C":{"x_min":0,"x_max":711,"ha":711,"o":"m 666 28 q 555 -18 425 -18 q 243 -18 141 82 q 39 182 39 362 q 39 542 138 642 q 238 741 419 741 q 530 741 653 709 l 653 560 l 581 560 l 581 569 q 581 634 560 652 q 511 693 421 693 q 315 693 257 607 q 199 521 199 364 q 199 204 264 123 q 329 42 459 42 q 549 42 666 96 z"},"W":{"x_min":0,"x_max":955,"ha":955,"o":"m 256 -9 l 89 581 q 66 653 58 664 q 49 674 9 677 l 0 678 l 0 723 l 283 723 l 283 678 l 274 678 q 215 678 215 660 q 215 638 231 581 l 327 246 l 476 714 l 531 714 l 690 217 l 805 579 q 809 591 816 620 q 824 649 824 657 q 824 678 771 678 l 762 678 l 762 723 l 955 723 l 955 678 l 946 677 q 930 676 924 676 q 898 676 893 667 q 887 658 861 579 l 674 -9 l 626 -9 l 464 492 l 305 -9 z"},"A":{"x_min":0,"x_max":795,"ha":795,"o":"m 198 220 l 161 142 q 134 84 134 63 q 134 47 165 47 q 169 47 184 46 l 193 45 l 193 0 l 0 0 l 0 45 l 9 46 q 48 48 58 59 q 68 69 102 142 l 371 729 l 421 729 l 692 142 q 728 69 738 59 q 748 49 789 46 l 795 45 l 795 0 l 494 0 l 494 45 l 503 46 q 565 50 566 65 q 567 80 538 143 l 502 220 z m 220 268 l 479 268 l 348 549 z"},"f":{"x_min":0,"x_max":416,"ha":416,"o":"m 102 488 l 27 488 l 27 536 l 102 536 l 102 558 q 102 670 151 727 q 199 783 296 783 q 370 783 435 752 l 435 639 l 368 639 l 368 647 q 362 737 315 737 q 277 737 262 708 q 247 680 247 606 l 247 536 l 382 536 l 382 488 l 247 488 l 247 142 q 247 76 257 63 q 267 49 316 46 l 325 45 l 325 0 l 24 0 l 24 45 l 33 46 q 83 49 92 63 q 102 76 102 142 z"},"Q":{"x_min":0,"x_max":810,"ha":810,"o":"m 482 -11 q 444 -18 406 -18 q 235 -18 137 83 q 39 185 39 361 q 39 538 137 639 q 235 741 405 741 q 575 741 673 639 q 771 538 771 361 q 771 229 717 140 q 662 51 553 6 q 677 -45 896 -59 l 774 -148 q 629 -110 482 -11 z m 612 361 q 612 527 560 610 q 509 693 405 693 q 302 693 250 611 q 199 528 199 363 q 199 197 250 114 q 302 30 405 30 q 509 30 560 113 q 612 196 612 361 z"},"w":{"x_min":0,"x_max":879,"ha":879,"o":"m 236 -6 l 96 394 q 71 460 58 474 q 45 488 9 490 l 0 491 l 0 536 l 280 536 l 280 491 l 271 491 q 214 491 214 472 q 214 451 233 396 l 308 178 l 453 533 l 505 533 l 645 178 l 724 393 q 725 396 734 419 q 749 457 749 468 q 749 491 693 491 l 684 491 l 684 536 l 879 536 l 879 491 l 871 490 q 830 488 816 474 q 803 460 779 395 l 631 -6 l 586 -6 l 440 371 l 283 -6 z"},"-":{"x_min":0,"x_max":289,"ha":289,"o":"m 30 259 l 30 350 l 259 350 l 259 259 z"},"E":{"x_min":0,"x_max":601,"ha":601,"o":"m 572 0 l 21 0 l 21 45 l 30 46 q 80 49 89 63 q 99 76 99 142 l 99 582 q 99 647 90 660 q 80 673 30 677 l 21 678 l 21 723 l 551 723 l 551 593 l 479 593 l 478 603 q 477 627 477 632 q 477 659 464 667 q 451 675 405 675 l 250 675 l 250 400 l 351 400 q 409 400 417 403 q 426 406 427 449 l 428 458 l 479 458 l 479 301 l 428 301 l 427 310 q 426 349 413 354 q 400 358 351 358 l 247 358 l 247 142 q 247 61 266 55 q 280 51 344 51 l 404 51 q 478 51 487 58 q 496 65 500 126 l 500 136 l 572 136 z"},"s":{"x_min":0,"x_max":524,"ha":524,"o":"m 54 24 l 54 163 l 121 163 l 121 154 q 124 93 140 76 q 179 33 255 33 q 292 33 318 57 q 344 81 344 116 q 344 170 252 207 l 208 224 q 54 285 54 389 q 54 462 114 505 q 173 548 274 548 q 354 548 441 523 l 441 395 l 375 395 l 374 404 l 373 427 q 373 503 285 503 q 246 503 219 478 q 192 453 192 417 q 192 387 212 369 q 232 352 293 329 l 337 312 q 487 254 487 157 q 487 83 424 36 q 360 -12 263 -12 q 142 -12 54 24 z"},">":{"x_min":0,"x_max":624,"ha":624,"o":"m 47 554 l 577 289 l 47 24 l 47 108 l 416 289 l 47 470 z"},"l":{"x_min":0,"x_max":325,"ha":325,"o":"m 238 771 l 238 142 q 238 76 248 63 q 258 49 307 46 l 316 45 l 316 0 l 15 0 l 15 45 l 24 46 q 74 49 83 63 q 93 76 93 142 l 93 629 q 93 695 83 708 q 74 722 24 725 l 15 726 l 15 771 z"},"8":{"x_min":0,"x_max":624,"ha":624,"o":"m 193 385 q 86 460 86 555 q 86 637 153 689 q 219 741 324 741 q 423 741 485 697 q 546 653 546 581 q 546 484 404 409 q 579 319 579 195 q 579 101 504 41 q 430 -18 311 -18 q 190 -18 119 35 q 47 88 47 177 q 47 299 201 380 z m 362 433 q 421 496 421 571 q 421 634 395 665 q 369 696 317 696 q 271 696 239 665 q 207 634 207 588 q 207 518 320 456 z m 233 355 q 183 273 183 194 q 183 117 219 72 q 256 27 318 27 q 375 27 412 64 q 449 101 449 158 q 449 208 422 237 q 395 266 298 319 z"},"\\":{"x_min":0,"x_max":527,"ha":527,"o":"m 446 -145 l 0 771 l 83 771 l 527 -145 z"},"e":{"x_min":0,"x_max":562,"ha":562,"o":"m 514 21 q 418 -12 327 -12 q 190 -12 110 65 q 30 142 30 274 q 30 396 102 472 q 174 548 290 548 q 514 548 514 274 l 514 263 l 179 263 q 179 162 226 111 q 273 60 368 60 q 433 60 514 95 z m 182 309 l 371 309 l 371 326 q 371 423 352 463 q 332 503 284 503 q 233 503 208 454 q 182 406 182 309 z"},"b":{"x_min":0,"x_max":640,"ha":640,"o":"m 78 0 l 78 629 q 78 695 68 708 q 59 722 9 725 l 0 726 l 0 771 l 223 771 l 223 435 q 253 492 299 520 q 344 548 404 548 q 497 548 552 476 q 607 404 607 281 q 607 147 545 68 q 483 -12 379 -12 q 335 -12 296 4 q 257 21 223 54 l 202 0 z m 223 108 q 252 83 279 70 q 306 57 331 57 q 392 57 423 109 q 453 162 453 266 q 453 361 426 408 q 399 455 345 455 q 313 455 283 438 q 252 420 223 385 z"},"%":{"x_min":0,"x_max":759,"ha":759,"o":"m 22 -18 l 642 741 l 737 741 l 113 -18 z m 190 360 q 104 360 60 405 q 17 451 17 541 q 17 632 60 677 q 104 723 190 723 q 276 723 320 677 q 363 632 363 541 q 363 451 320 405 q 276 360 190 360 z m 190 406 q 222 406 238 440 q 253 474 253 541 q 253 609 238 643 q 222 676 190 676 q 158 676 142 643 q 126 609 126 541 q 126 474 142 440 q 158 406 190 406 z m 570 0 q 483 0 440 45 q 397 91 397 181 q 397 272 440 317 q 483 362 570 362 q 656 362 699 317 q 743 272 743 181 q 743 91 699 45 q 656 0 570 0 z m 570 46 q 602 46 618 80 q 634 114 634 181 q 634 249 618 282 q 602 316 570 316 q 538 316 522 282 q 506 249 506 181 q 506 114 522 80 q 538 46 570 46 z"},"m":{"x_min":0,"x_max":967,"ha":967,"o":"m 232 435 q 271 492 318 520 q 364 548 417 548 q 475 548 510 520 q 544 492 554 435 q 602 492 650 520 q 699 548 747 548 q 889 548 889 395 l 889 142 q 889 76 898 63 q 908 49 958 46 l 967 45 l 967 0 l 684 0 l 684 45 l 693 46 q 734 48 742 62 q 750 76 750 142 l 750 362 q 750 460 688 460 q 652 460 621 439 q 589 418 561 375 l 561 142 q 561 77 569 62 q 577 48 618 46 l 626 45 l 626 0 l 355 0 l 355 45 l 365 46 q 406 48 414 62 q 422 76 422 142 l 422 362 q 422 411 406 436 q 391 460 359 460 q 323 460 291 440 q 259 419 232 377 l 232 142 q 232 77 240 62 q 249 48 289 46 l 298 45 l 298 0 l 15 0 l 15 45 l 24 46 q 74 49 83 63 q 93 76 93 142 l 93 395 q 93 460 83 473 q 74 487 24 490 l 15 491 l 15 536 l 232 536 z"},"#":{"x_min":0,"x_max":663,"ha":663,"o":"m 107 0 l 162 211 l 20 211 l 31 271 l 177 271 l 221 452 l 66 452 l 79 512 l 236 512 l 290 723 l 352 723 l 298 512 l 439 512 l 492 723 l 555 723 l 500 512 l 642 512 l 630 452 l 486 452 l 442 271 l 595 271 l 583 211 l 427 211 l 373 0 l 311 0 l 365 211 l 224 211 l 170 0 z m 239 271 l 380 271 l 424 452 l 284 452 z"},",":{"x_min":0,"x_max":265,"ha":265,"o":"m 54 -145 l 54 -100 q 115 -100 115 -17 l 115 0 l 54 0 l 54 157 l 211 157 l 211 36 q 211 -131 54 -145 z"},"n":{"x_min":0,"x_max":654,"ha":654,"o":"m 238 435 q 271 492 317 520 q 363 548 421 548 q 494 548 535 504 q 575 459 575 379 l 575 142 q 575 76 585 63 q 595 49 645 46 l 654 45 l 654 0 l 353 0 l 353 45 l 361 46 q 411 49 421 63 q 431 76 431 142 l 431 363 q 431 420 417 440 q 404 460 366 460 q 333 460 301 441 q 269 421 238 381 l 238 142 q 238 76 248 63 q 258 49 307 46 l 316 45 l 316 0 l 15 0 l 15 45 l 24 46 q 74 49 83 63 q 93 76 93 142 l 93 395 q 93 460 83 473 q 74 487 24 490 l 15 491 l 15 536 l 238 536 z"},"h":{"x_min":0,"x_max":654,"ha":654,"o":"m 238 435 q 271 492 317 520 q 363 548 421 548 q 494 548 535 504 q 575 459 575 379 l 575 142 q 575 76 585 63 q 595 49 645 46 l 654 45 l 654 0 l 353 0 l 353 45 l 361 46 q 411 49 421 63 q 431 76 431 142 l 431 363 q 431 420 417 440 q 404 460 366 460 q 333 460 301 441 q 269 421 238 381 l 238 142 q 238 76 248 63 q 258 49 307 46 l 316 45 l 316 0 l 15 0 l 15 45 l 24 46 q 74 49 83 63 q 93 76 93 142 l 93 629 q 93 695 83 708 q 74 722 24 725 l 15 726 l 15 771 l 238 771 z"},"z":{"x_min":0,"x_max":584,"ha":584,"o":"m 49 0 l 49 51 l 362 491 l 212 491 q 154 491 146 483 q 138 475 134 416 l 134 407 l 67 407 l 67 536 l 522 536 l 522 491 l 211 51 l 384 51 q 434 51 448 58 q 461 64 462 87 q 463 105 464 121 l 465 129 l 531 129 l 531 0 z"},"B":{"x_min":0,"x_max":639,"ha":639,"o":"m 396 375 q 498 355 548 306 q 598 257 598 180 q 598 90 539 45 q 479 0 359 0 l 21 0 l 21 45 l 30 46 q 80 49 89 63 q 99 76 99 142 l 99 582 q 99 647 90 660 q 80 673 30 677 l 21 678 l 21 723 l 358 723 q 463 723 515 683 q 568 643 568 562 q 568 500 525 453 q 482 406 396 375 z m 244 346 l 244 141 q 244 86 257 70 q 270 54 315 54 q 374 54 409 91 q 444 128 444 189 q 444 260 397 303 q 350 346 274 346 z m 244 395 l 273 395 q 346 395 382 431 q 418 467 418 540 q 418 607 382 641 q 346 675 274 675 l 244 675 z"},"K":{"x_min":0,"x_max":747,"ha":747,"o":"m 244 348 l 244 142 q 244 59 260 54 q 287 47 301 46 l 310 45 l 310 0 l 21 0 l 21 45 l 30 46 q 80 49 89 63 q 99 76 99 142 l 99 582 q 99 647 90 660 q 80 673 30 677 l 21 678 l 21 723 l 310 723 l 310 678 l 301 677 q 260 674 252 660 q 244 646 244 582 l 244 389 l 455 582 q 533 653 533 667 q 533 678 484 678 l 475 678 l 475 723 l 695 723 l 695 678 l 686 677 q 640 674 629 667 q 618 660 529 579 l 360 423 l 605 140 q 669 69 684 59 q 700 48 740 46 l 749 45 l 749 0 l 400 0 l 400 45 l 409 45 q 469 45 470 60 q 470 71 413 142 z"},"R":{"x_min":0,"x_max":720,"ha":720,"o":"m 244 316 l 244 142 q 244 77 252 62 q 261 48 301 46 l 310 45 l 310 0 l 21 0 l 21 45 l 30 46 q 80 49 89 63 q 99 76 99 142 l 99 582 q 99 647 90 660 q 80 673 30 677 l 21 678 l 21 723 l 231 723 l 321 725 l 365 726 q 589 726 589 543 q 589 468 554 417 q 520 365 450 336 l 591 140 q 643 70 657 59 q 671 48 712 46 l 721 45 l 721 0 l 506 0 l 306 316 z m 244 365 l 271 365 q 347 365 392 410 q 437 456 437 534 q 437 675 298 675 l 244 675 z"},"T":{"x_min":0,"x_max":714,"ha":714,"o":"m 282 675 l 164 675 q 119 675 106 662 q 93 650 92 586 l 92 572 l 20 572 l 20 723 l 694 723 l 694 572 l 622 572 l 622 586 q 621 650 608 662 q 595 675 550 675 l 432 675 l 432 142 q 436 69 443 60 q 451 50 514 46 l 522 45 l 522 0 l 191 0 l 191 45 l 200 46 q 260 50 271 63 q 282 76 282 142 z"},"P":{"x_min":0,"x_max":614,"ha":614,"o":"m 244 296 l 244 142 q 244 75 254 62 q 265 50 325 46 l 334 45 l 334 0 l 21 0 l 21 45 l 30 46 q 80 49 89 63 q 99 76 99 142 l 99 582 q 99 647 90 660 q 80 673 30 677 l 21 678 l 21 723 l 244 723 l 337 725 l 378 726 q 591 726 591 535 q 591 416 516 356 q 440 296 289 296 z m 244 344 l 272 344 q 355 344 397 389 q 438 434 438 523 q 438 675 296 675 l 244 675 z"},"|":{"x_min":0,"x_max":259,"ha":259,"o":"m 90 -145 l 90 771 l 168 771 l 168 -145 z"},"t":{"x_min":0,"x_max":389,"ha":389,"o":"m 363 4 q 318 -12 274 -12 q 184 -12 139 32 q 94 77 94 167 l 94 488 l 27 488 l 27 536 l 94 536 l 94 626 l 238 652 l 238 536 l 357 536 l 357 488 l 238 488 l 238 163 q 238 91 252 68 q 267 45 311 45 q 335 45 363 57 z"},"M":{"x_min":0,"x_max":904,"ha":904,"o":"m 21 723 l 262 723 l 462 255 l 666 723 l 883 723 l 883 678 l 874 677 q 824 673 814 660 q 805 647 805 582 l 805 142 q 805 76 814 63 q 824 49 874 46 l 883 45 l 883 0 l 600 0 l 600 45 l 609 46 q 650 48 658 62 q 666 76 666 142 l 666 570 l 440 81 l 392 81 l 172 601 l 172 142 q 172 77 180 62 q 188 48 229 46 l 238 45 l 238 0 l 21 0 l 21 45 l 30 46 q 80 49 89 63 q 99 76 99 142 l 99 582 q 99 647 90 660 q 80 673 30 677 l 21 678 z"},"g":{"x_min":0,"x_max":599,"ha":599,"o":"m 136 19 q 80 48 80 89 q 80 116 105 141 q 131 166 182 190 q 122 212 92 255 q 62 297 62 360 q 62 446 121 497 q 181 548 280 548 q 311 548 339 543 q 366 539 391 529 l 590 545 l 560 468 l 454 483 q 500 428 500 363 q 500 282 442 228 q 384 173 298 173 q 281 173 250 176 l 222 181 q 206 168 197 156 q 189 143 189 130 q 189 100 269 100 l 351 100 q 465 100 513 71 q 561 42 561 -27 q 561 -107 484 -156 q 407 -205 281 -205 q 167 -205 95 -173 q 23 -141 23 -90 q 23 -17 136 19 z m 198 358 q 198 287 219 251 q 240 215 281 215 q 323 215 344 251 q 365 287 365 358 q 365 430 344 465 q 323 501 281 501 q 240 501 219 465 q 198 430 198 358 z m 183 6 q 163 -38 163 -64 q 163 -104 201 -132 q 239 -160 292 -160 q 350 -160 389 -129 q 428 -99 428 -54 q 428 -24 400 -9 q 373 6 317 6 z"},"j":{"x_min":0,"x_max":355,"ha":355,"o":"m 274 536 l 274 11 q 274 -97 221 -151 q 169 -205 63 -205 q 13 -205 -56 -185 l -56 -54 l 11 -54 l 11 -63 q 15 -125 25 -143 q 36 -160 69 -160 q 107 -160 118 -135 q 129 -109 129 -26 l 129 395 q 129 460 120 473 q 110 487 60 490 l 51 491 l 51 536 z m 129 626 l 129 771 l 274 771 l 274 626 z"},"i":{"x_min":0,"x_max":325,"ha":325,"o":"m 238 536 l 238 142 q 238 76 248 63 q 258 49 307 46 l 316 45 l 316 0 l 15 0 l 15 45 l 24 46 q 74 49 83 63 q 93 76 93 142 l 93 395 q 93 460 83 473 q 74 487 24 490 l 15 491 l 15 536 z m 93 626 l 93 771 l 238 771 l 238 626 z"},"y":{"x_min":0,"x_max":654,"ha":654,"o":"m 101 -193 l 284 6 l 104 396 q 70 465 59 476 q 47 488 9 490 l 0 491 l 0 536 l 304 536 l 304 491 l 295 491 q 236 491 236 473 q 236 463 267 395 l 367 174 l 484 396 q 520 461 520 476 q 520 491 470 491 l 461 491 l 461 536 l 654 536 l 654 491 l 645 490 q 603 487 592 477 q 581 467 542 396 l 229 -193 z"},"@":{"x_min":0,"x_max":861,"ha":861,"o":"m 537 22 q 444 -18 364 -18 q 227 -18 135 68 q 44 153 44 283 q 44 464 184 602 q 323 741 504 741 q 641 741 734 653 q 828 565 828 437 q 828 315 752 230 q 676 145 567 145 q 488 145 488 198 q 488 229 515 307 l 497 307 q 444 226 397 185 q 349 145 307 145 q 264 145 242 173 q 220 201 220 256 q 220 376 301 474 q 381 572 479 572 q 507 572 553 557 q 557 556 566 553 l 629 553 l 578 298 q 572 267 572 243 q 572 200 611 200 q 674 200 728 275 q 782 351 782 439 q 782 547 701 622 q 620 696 501 696 q 337 696 214 570 q 90 443 90 276 q 90 170 166 99 q 242 27 356 27 q 432 27 522 65 z m 509 386 l 533 500 q 513 514 491 521 q 469 529 445 529 q 390 529 348 455 q 307 381 307 282 q 307 250 317 233 q 328 217 350 217 q 382 217 422 259 q 461 301 509 386 z"},".":{"x_min":0,"x_max":265,"ha":265,"o":"m 54 0 l 54 157 l 211 157 l 211 0 z"},"p":{"x_min":0,"x_max":652,"ha":652,"o":"m 235 54 l 235 -51 q 235 -116 245 -130 q 255 -144 304 -147 l 313 -147 l 313 -193 l 12 -193 l 12 -147 l 21 -147 q 71 -144 81 -130 q 90 -117 90 -51 l 90 395 q 90 460 81 473 q 71 487 21 490 l 12 491 l 12 536 l 235 536 l 235 435 q 266 492 311 520 q 356 548 417 548 q 509 548 564 476 q 619 404 619 281 q 619 147 557 68 q 495 -12 392 -12 q 347 -12 308 4 q 269 21 235 54 z m 235 108 q 264 83 291 70 q 318 57 343 57 q 404 57 435 109 q 465 162 465 266 q 465 361 438 408 q 412 455 357 455 q 326 455 295 438 q 264 420 235 385 z"},"X":{"x_min":0,"x_max":702,"ha":702,"o":"m 269 361 l 137 579 q 91 652 79 663 q 67 674 30 677 l 21 678 l 21 723 l 332 723 l 332 678 l 322 678 q 267 678 267 663 q 266 647 307 579 l 397 428 l 507 580 q 556 646 556 662 q 556 678 509 678 l 500 678 l 500 723 l 702 723 l 702 678 q 696 677 674 676 q 652 674 641 665 q 630 656 575 579 l 437 385 l 583 143 q 629 70 641 59 q 653 48 690 46 l 699 45 l 699 0 l 389 0 l 389 45 l 397 45 q 454 45 455 61 q 456 73 415 143 l 309 318 l 190 143 q 146 78 146 62 q 146 45 196 45 l 205 45 l 205 0 l 0 0 l 0 45 l 9 46 q 50 48 60 57 q 70 65 122 143 z"},"*":{"x_min":0,"x_max":434,"ha":434,"o":"m 209 488 l 151 355 l 65 418 l 173 514 q 187 492 209 488 z m 169 529 l 25 543 l 59 647 l 182 572 q 167 556 167 538 q 167 535 169 529 z m 194 581 l 164 723 l 271 723 l 239 581 q 228 586 217 586 q 208 586 194 581 z m 251 572 l 376 646 l 409 542 l 265 529 q 265 534 265 537 q 265 554 251 572 z m 260 514 l 368 418 l 281 355 l 224 488 q 245 493 260 514 z"},"Y":{"x_min":0,"x_max":717,"ha":717,"o":"m 281 312 l 117 577 q 86 626 82 634 q 65 665 57 670 q 49 674 8 677 l -2 678 l -2 723 l 312 723 l 312 678 l 304 678 q 247 678 246 662 q 245 646 288 577 l 410 375 l 536 577 q 577 644 577 659 q 577 678 530 678 l 519 678 l 519 723 l 718 723 l 718 678 l 709 677 q 666 674 660 668 q 654 663 599 577 l 431 313 l 431 142 q 431 76 441 63 q 451 49 500 46 l 509 45 l 509 0 l 202 0 l 202 45 l 211 46 q 261 49 271 63 q 281 76 281 142 z"},"c":{"x_min":0,"x_max":541,"ha":541,"o":"m 491 13 q 408 -12 331 -12 q 191 -12 111 64 q 30 141 30 274 q 30 402 106 475 q 183 548 316 548 q 401 548 489 524 l 489 386 l 420 386 l 419 395 q 416 456 405 469 q 377 503 320 503 q 252 503 218 447 q 184 392 184 280 q 184 167 229 109 q 275 52 366 52 q 422 52 491 80 z"},"!":{"x_min":0,"x_max":265,"ha":265,"o":"m 60 0 l 60 121 l 205 121 l 205 0 z m 110 205 l 60 578 l 60 723 l 205 723 l 205 578 l 155 205 z"},"/":{"x_min":0,"x_max":527,"ha":527,"o":"m 0 -145 l 450 771 l 530 771 l 80 -145 z"},"[":{"x_min":0,"x_max":327,"ha":327,"o":"m 66 -145 l 66 771 l 292 771 l 292 726 l 190 726 l 190 -100 l 292 -100 l 292 -145 z"},"6":{"x_min":0,"x_max":624,"ha":624,"o":"m 188 382 q 220 424 263 445 q 307 465 361 465 q 458 465 521 401 q 584 337 584 240 q 584 128 510 55 q 436 -18 323 -18 q 188 -18 113 78 q 38 173 38 345 q 38 527 123 634 q 208 741 352 741 q 453 741 546 712 l 546 582 l 480 582 l 479 590 q 479 615 478 624 q 478 657 448 677 q 418 696 368 696 q 284 696 236 619 q 188 542 188 408 z m 193 259 q 193 153 230 90 q 268 27 330 27 q 381 27 411 76 q 440 125 440 213 q 440 302 407 354 q 374 405 317 405 q 259 405 226 366 q 193 327 193 259 z"},"r":{"x_min":0,"x_max":462,"ha":462,"o":"m 238 383 l 238 142 q 238 75 249 62 q 259 50 319 46 l 329 45 l 329 0 l 15 0 l 15 45 l 24 46 q 74 49 83 63 q 93 76 93 142 l 93 395 q 93 460 83 473 q 74 487 24 490 l 15 491 l 15 536 l 238 536 l 238 435 q 304 548 409 548 q 420 548 437 544 l 437 374 l 371 374 l 370 382 q 366 437 363 444 q 360 451 339 451 q 276 451 238 383 z"},"2":{"x_min":0,"x_max":624,"ha":624,"o":"m 56 0 l 56 48 q 94 156 221 269 l 251 295 q 388 417 388 539 q 388 609 351 651 q 313 693 250 693 q 195 693 161 662 q 146 648 143 623 l 142 575 l 141 566 l 75 566 l 75 701 q 184 741 284 741 q 401 741 471 688 q 541 635 541 545 q 541 431 388 333 q 336 299 319 286 l 279 253 q 201 191 195 121 l 539 121 l 539 0 z"},"{":{"x_min":0,"x_max":366,"ha":366,"o":"m 58 336 l 76 336 q 146 336 146 406 q 146 417 133 475 l 121 526 q 107 587 107 619 q 107 684 156 727 q 205 771 277 771 l 314 771 l 314 726 q 243 717 243 647 q 243 632 250 594 l 256 559 q 266 508 266 471 q 266 357 158 313 q 265 267 265 156 q 265 114 255 62 l 249 27 q 241 -16 241 -27 q 241 -87 314 -100 l 314 -145 l 275 -145 q 203 -145 154 -103 q 106 -61 106 2 q 106 36 120 96 l 131 147 q 145 203 145 225 q 145 291 76 291 l 58 291 z"},"9":{"x_min":0,"x_max":624,"ha":624,"o":"m 435 340 q 403 299 360 278 q 317 257 262 257 q 166 257 102 321 q 39 385 39 483 q 39 595 113 668 q 187 741 300 741 q 435 741 510 645 q 586 549 586 378 q 586 196 501 89 q 416 -18 272 -18 q 170 -18 77 11 l 77 142 l 143 142 l 144 132 q 146 106 146 99 q 146 65 175 46 q 205 27 255 27 q 339 27 387 104 q 435 180 435 315 z m 431 464 q 431 570 393 633 q 356 696 293 696 q 242 696 213 646 q 184 597 184 510 q 184 420 216 369 q 249 318 307 318 q 365 318 398 357 q 431 396 431 464 z"}," ":{"x_min":0,"x_max":312,"ha":312,"o":""},"I":{"x_min":0,"x_max":350,"ha":350,"o":"m 328 0 l 21 0 l 21 45 l 30 46 q 80 49 89 63 q 99 76 99 142 l 99 582 q 99 647 90 660 q 80 673 30 677 l 21 678 l 21 723 l 328 723 l 328 678 l 319 677 q 269 673 260 660 q 250 647 250 582 l 250 142 q 250 76 260 63 q 270 49 319 46 l 328 45 z"},"H":{"x_min":0,"x_max":798,"ha":798,"o":"m 250 354 l 250 142 q 250 76 260 63 q 270 49 319 46 l 328 45 l 328 0 l 21 0 l 21 45 l 30 46 q 80 49 89 63 q 99 76 99 142 l 99 582 q 99 647 90 660 q 80 673 30 677 l 21 678 l 21 723 l 328 723 l 328 678 l 319 677 q 269 673 260 660 q 250 647 250 582 l 250 406 l 548 406 l 548 582 q 548 647 539 660 q 529 673 479 677 l 470 678 l 470 723 l 777 723 l 777 678 l 769 677 q 718 673 709 660 q 699 647 699 582 l 699 142 q 699 76 709 63 q 719 49 769 46 l 777 45 l 777 0 l 470 0 l 470 45 l 479 46 q 529 49 539 63 q 548 76 548 142 l 548 354 z"},"4":{"x_min":0,"x_max":624,"ha":624,"o":"m 369 196 l 25 196 l 25 277 l 383 732 l 489 732 l 489 298 l 574 298 l 574 196 l 489 196 l 489 142 q 489 76 499 63 q 509 49 559 46 l 567 45 l 567 0 l 291 0 l 291 45 l 299 46 q 349 49 359 63 q 369 76 369 142 z m 99 298 l 369 298 l 369 639 z"},"~":{"x_min":0,"x_max":624,"ha":624,"o":"m 47 217 q 47 288 84 333 q 122 377 182 377 q 221 377 287 343 l 339 315 q 422 271 446 271 q 505 271 505 361 l 577 361 q 567 199 447 199 q 404 199 328 238 l 273 266 q 198 305 180 305 q 119 305 119 217 z"},"D":{"x_min":0,"x_max":793,"ha":793,"o":"m 21 0 l 21 45 l 30 46 q 80 49 89 63 q 99 76 99 142 l 99 582 q 99 647 90 660 q 80 673 30 677 l 21 678 l 21 723 l 258 723 l 363 724 l 401 725 q 572 725 664 634 q 755 544 755 376 q 755 205 662 102 q 569 0 413 0 z m 249 675 l 249 142 q 249 82 267 67 q 286 51 356 51 q 476 51 536 133 q 595 214 595 376 q 595 539 529 607 q 463 675 305 675 z"},"^":{"x_min":0,"x_max":624,"ha":624,"o":"m 312 561 l 128 193 l 47 193 l 312 723 l 577 193 l 496 193 z"},"0":{"x_min":0,"x_max":624,"ha":624,"o":"m 312 -18 q 187 -18 109 87 q 32 191 32 360 q 32 531 109 636 q 187 741 312 741 q 437 741 514 636 q 592 531 592 360 q 592 191 514 87 q 437 -18 312 -18 z m 312 27 q 375 27 407 111 q 438 194 438 361 q 438 528 406 612 q 374 696 309 696 q 248 696 217 612 q 186 528 186 361 q 186 194 217 111 q 249 27 312 27 z"},"F":{"x_min":0,"x_max":584,"ha":584,"o":"m 250 340 l 250 142 q 253 69 261 60 q 269 50 331 46 l 340 45 l 340 0 l 21 0 l 21 45 l 30 46 q 80 49 89 63 q 99 76 99 142 l 99 582 q 99 647 90 660 q 80 673 30 677 l 21 678 l 21 723 l 548 723 l 548 587 l 476 587 l 476 596 q 474 619 474 628 q 474 658 461 667 q 449 675 403 675 l 250 675 l 250 382 l 351 382 q 409 382 417 385 q 426 388 426 408 q 426 411 427 431 l 428 440 l 479 440 l 479 283 l 428 283 l 427 292 q 426 307 426 312 q 426 331 413 335 q 400 340 351 340 z"},"`":{"x_min":0,"x_max":618,"ha":618,"o":"m 157 771 l 292 771 l 398 626 l 339 626 z"},"k":{"x_min":0,"x_max":654,"ha":654,"o":"m 238 259 l 238 142 q 238 77 246 62 q 255 48 295 46 l 304 45 l 304 0 l 15 0 l 15 45 l 24 46 q 74 49 83 63 q 93 76 93 142 l 93 629 q 93 695 83 708 q 74 722 24 725 l 15 726 l 15 771 l 238 771 l 238 289 l 262 289 l 380 400 q 446 461 446 479 q 446 491 404 491 l 395 491 l 395 536 l 605 536 l 605 491 l 597 490 q 553 487 534 476 q 516 465 439 394 l 368 326 l 516 140 q 570 75 589 62 q 607 48 645 46 l 654 45 l 654 0 l 440 0 l 260 259 z"},"u":{"x_min":0,"x_max":654,"ha":654,"o":"m 416 0 l 416 101 q 383 44 337 16 q 291 -12 232 -12 q 160 -12 119 33 q 78 78 78 157 l 78 395 q 78 460 68 473 q 59 487 9 490 l 0 491 l 0 536 l 223 536 l 223 173 q 223 117 237 96 q 252 75 290 75 q 324 75 356 95 q 387 115 416 154 l 416 395 q 416 460 406 473 q 396 487 346 490 l 337 491 l 337 536 l 560 536 l 560 142 q 560 76 570 63 q 580 49 629 46 l 639 45 l 639 0 z"},"]":{"x_min":0,"x_max":327,"ha":327,"o":"m 261 771 l 261 -145 l 35 -145 l 35 -100 l 137 -100 l 137 726 l 35 726 l 35 771 z"},"U":{"x_min":0,"x_max":747,"ha":747,"o":"m 9 723 l 316 723 l 316 678 l 308 677 q 258 673 248 660 q 239 647 239 582 l 239 269 q 239 139 277 84 q 314 29 405 29 q 501 29 545 87 q 588 145 588 273 l 588 582 q 588 647 579 660 q 569 673 519 677 l 510 678 l 510 723 l 737 723 l 737 678 l 729 677 q 679 673 670 660 q 661 647 661 582 l 661 285 q 661 129 594 56 q 527 -18 385 -18 q 87 -18 87 275 l 87 578 q 87 644 78 657 q 68 671 19 674 l 9 675 z"},"o":{"x_min":0,"x_max":618,"ha":618,"o":"m 309 -12 q 179 -12 105 63 q 30 138 30 268 q 30 398 105 473 q 179 548 309 548 q 438 548 513 473 q 587 398 587 268 q 587 138 513 63 q 438 -12 309 -12 z m 309 39 q 369 39 398 96 q 428 154 428 268 q 428 383 398 440 q 369 497 309 497 q 250 497 220 440 q 190 383 190 268 q 190 154 220 96 q 250 39 309 39 z"},"N":{"x_min":0,"x_max":788,"ha":788,"o":"m 573 -10 l 171 537 l 171 142 q 171 76 181 63 q 191 49 241 46 l 250 45 l 250 0 l 21 0 l 21 45 l 31 46 q 80 49 90 63 q 100 76 100 142 l 100 582 q 100 647 90 660 q 81 673 31 677 l 21 678 l 21 723 l 203 723 l 602 177 l 602 582 q 602 647 593 660 q 583 673 533 677 l 523 678 l 523 723 l 751 723 l 751 678 l 742 677 q 693 673 683 660 q 673 647 673 582 l 673 -10 z"},"+":{"x_min":0,"x_max":624,"ha":624,"o":"m 276 24 l 276 253 l 47 253 l 47 325 l 276 325 l 276 554 l 348 554 l 348 325 l 577 325 l 577 253 l 348 253 l 348 24 z"},"G":{"x_min":0,"x_max":753,"ha":753,"o":"m 659 15 q 509 -18 412 -18 q 240 -18 139 84 q 39 187 39 362 q 39 543 138 642 q 238 741 422 741 q 535 741 658 709 l 658 566 l 586 566 l 586 575 q 586 635 570 650 q 523 693 420 693 q 310 693 254 610 q 199 527 199 362 q 199 196 258 114 q 317 31 436 31 q 471 31 508 43 l 508 177 q 508 242 499 256 q 489 269 439 272 l 430 273 l 430 318 l 737 318 l 737 273 l 728 272 q 679 270 669 256 q 659 242 659 177 z"},"q":{"x_min":0,"x_max":640,"ha":640,"o":"m 417 101 q 387 44 342 16 q 296 -12 236 -12 q 143 -12 88 60 q 33 132 33 255 q 33 389 95 469 q 157 548 261 548 q 306 548 345 532 q 384 515 417 482 l 417 536 l 562 536 l 562 -51 q 562 -117 572 -130 q 582 -144 631 -147 l 640 -147 l 640 -193 l 339 -193 l 339 -147 l 348 -147 q 397 -144 407 -130 q 417 -117 417 -51 z m 417 425 q 388 451 361 464 q 334 477 309 477 q 248 477 218 424 q 187 372 187 267 q 187 173 214 125 q 241 78 294 78 q 327 78 358 96 q 388 113 417 148 z"},"d":{"x_min":0,"x_max":652,"ha":652,"o":"m 417 0 l 417 101 q 387 44 342 16 q 296 -12 236 -12 q 143 -12 88 60 q 33 132 33 255 q 33 389 95 469 q 157 548 261 548 q 306 548 345 532 q 384 515 417 482 l 417 629 q 417 695 407 708 q 398 722 348 725 l 339 726 l 339 771 l 562 771 l 562 142 q 562 76 572 63 q 582 49 631 46 l 640 45 l 640 0 z m 417 428 q 388 454 361 467 q 334 479 309 479 q 248 479 218 427 q 187 375 187 271 q 187 176 214 128 q 241 81 295 81 q 327 81 358 99 q 388 116 417 151 z"},"1":{"x_min":0,"x_max":624,"ha":624,"o":"m 391 729 l 391 142 q 391 72 403 62 q 415 52 508 46 l 517 45 l 517 0 l 120 0 l 120 45 l 129 46 q 233 54 237 69 q 246 107 246 142 l 246 560 q 246 613 239 628 q 231 644 206 644 q 197 644 129 635 l 120 634 l 120 682 z"},"5":{"x_min":0,"x_max":624,"ha":624,"o":"m 104 5 l 104 139 l 170 139 l 171 129 q 175 63 192 51 q 222 27 261 27 q 321 27 356 72 q 391 117 391 195 q 391 291 335 339 q 280 387 169 387 q 146 387 118 384 l 118 723 l 530 723 l 530 611 l 177 611 l 163 433 l 210 434 q 377 434 460 377 q 544 319 544 205 q 544 101 468 42 q 393 -18 261 -18 q 197 -18 104 5 z"}}}
